# AST/ASF file generated using VICON BodyLanguage
# -----------------------------------------------
:version 1.10
:name VICON
:units
  mass 1.0
  length 0.45
  angle deg
:documentation
   .ast/.asf automatically generated from VICON data using
   VICON BodyBuilder and BodyLanguage model FoxedUp or BRILLIANT.MOD
:root
   order TX TY TZ RX RY RZ
   axis XYZ
   position 0 0 0  
   orientation 0 0 0 
:bonedata
  begin
     id 1 
     name lhipjoint
     direction 0.677091 -0.635792 0.370561 
     length 2.74323 
     axis 0 0 0  XYZ
  end
  begin
     id 2 
     name lfemur
     direction 0.34202 -0.939693 0  
     length 7.44995  
     axis 0 0 20  XYZ
    dof rx ry rz
    limits (-160.0 20.0)
           (-70.0 70.0)
           (-60.0 70.0)
  end
  begin
     id 3 
     name ltibia
     direction 0.34202 -0.939693 0   
     length 7.34467   
     axis 0 0 20   XYZ
    dof rx
    limits (-10.0 170.0)
  end
  begin
     id 4 
     name lfoot
     direction 0.101953 -0.280114 0.954537   
     length 1.72105   
     axis -90 7.62852e-016 20   XYZ
    dof rx rz
    limits (-45.0 90.0)
           (-70.0 20.0)
  end
  begin
     id 5 
     name ltoes
     direction 1.53537e-011 -4.21915e-011 1   
     length 0.865872   
     axis -90 7.62852e-016 20   XYZ
    dof rx
    limits (-90.0 20.0)
  end
  begin
     id 6 
     name rhipjoint
     direction -0.695735 -0.620586 0.361699   
     length 2.81045  
     axis 0 0 0  XYZ 
  end
  begin
     id 7 
     name rfemur
     direction -0.34202 -0.939693 0   
     length 7.29387   
     axis 0 0 -20   XYZ
    dof rx ry rz
    limits (-160.0 20.0)
           (-70.0 70.0)
           (-70.0 60.0)
  end
  begin
     id 8 
     name rtibia
     direction -0.34202 -0.939693 0   
     length 7.44935   
     axis 0 0 -20   XYZ
    dof rx
    limits (-10.0 170.0)
 end
 begin
     id 9 
     name rfoot
     direction -0.104163 -0.286184 0.952496   
     length 1.77731  
     axis -90 -7.62852e-016 -20   XYZ
    dof rx rz
    limits (-45.0 90.0)
           (-20.0 70.0)
  end
  begin
     id 10 
     name rtoes
     direction -1.5355e-011 -4.21888e-011 1   
     length 0.892424   
     axis -90 -7.62852e-016 -20   XYZ
    dof rx
    limits (-90.0 20.0)
  end
  begin
     id 11 
     name lowerback
     direction 0.0100202 0.997226 -0.0737589   
     length 2.16892   
     axis 0 0 0   XYZ
    dof rx ry rz
    limits (-20.0 45.0)
           (-30.0 30.0)
           (-30.0 30.0)
  end
  begin
     id 12 
     name upperback
     direction 0.00432398 0.999988 -0.00215019   
     length 2.17326   
     axis 0 0 0   XYZ
    dof rx ry rz
    limits (-20.0 45.0)
           (-30.0 30.0)
           (-30.0 30.0)
  end
  begin
     id 13 
     name thorax
     direction -0.00195047 0.999485 0.0320434   
     length 2.18139   
     axis 0 0 0   XYZ
    dof rx ry rz
    limits (-20.0 45.0)
           (-30.0 30.0)
           (-30.0 30.0)
  end
  begin
     id 14 
     name lowerneck
     direction 0.00782762 0.986241 0.165128   
     length 1.88415   
     axis 0 0 0   XYZ
    dof rx ry rz
    limits (-20.0 45.0)
           (-30.0 30.0)
           (-30.0 30.0)
  end
  begin
     id 15 
     name upperneck
     direction 0.00988667 0.981098 -0.193258   
     length 1.9242   
     axis 0 0 0   XYZ
    dof rx ry rz
    limits (-20.0 45.0)
           (-30.0 30.0)
           (-30.0 30.0)
  end
  begin
     id 16
     name head
     direction 0.00252199 0.996513 -0.0833958  
     length 1.93887  
     axis 0 0 0   XYZ
    dof rx ry rz
    limits (-20.0 45.0)
           (-30.0 30.0)
           (-30.0 30.0)
  end
  begin
     id 17 
     name lclavicle
     direction 0.929492 0.368193 -0.0218667  
     length 3.5955  
     axis 0 0 0   XYZ
    dof ry rz
    limits (-20.0 10.0)
           (0.0 20.0)
  end
  begin
     id 18 
     name lhumerus
     direction 1 -4.48972e-011 1.41911e-027   
     length 5.2795   
     axis 180 -30 -90   XYZ
    dof rx ry rz
    limits (-60.0 90.0)
           (-90.0 90.0)
           (-90.0 90.0)
  end
  begin
     id 19
     name lradius
     direction 1 -4.48963e-011 7.05772e-027   
     length 3.53504   
     axis 180 -30 -90   XYZ
    dof rx
    limits (-10.0 170.0)
  end
  begin
     id 20
     name lwrist
     direction 1 -4.48957e-011 9.54866e-027   
     length 1.76752   
     axis -7.69462e-015 90 90   XYZ
    dof ry
    limits (-180.0 0.0)
 end
  begin
     id 21 
     name lhand
     direction 1 -4.48979e-011 1.90973e-026   
     length 0.667948   
     axis -1.21857e-014 90 90   XYZ
    dof rx rz
    limits (-90.0 90.0)
           (-45.0 45.0)
  end
  begin
     id 22 
     name lfingers
     direction 1 -4.48987e-011 3.81946e-026   
     length 0.538517   
     axis -2.43714e-014 90 90   XYZ
    dof rx
    limits (0.0 90.0)
  end
  begin
     id 23
     name lthumb
     direction 0.707107 -6.34962e-011 0.707107   
     length 0.773206   
     axis -90 45 2.85299e-015   XYZ
    dof rx rz
    limits (-45.0 45.0)
           (-45.0 45.0)
  end
  begin
     id 24 
     name rclavicle
     direction -0.898763 0.414256 -0.143584   
     length 3.5176  
     axis 0 0 0   XYZ 
    dof ry rz
    limits (-10.0 20.0)
           (-20.0 0.0)
  end
  begin
     id 25 
     name rhumerus
     direction -1 -4.48971e-011 1.129e-027  
     length 5.25035   
     axis 180 30 90   XYZ
    dof rx ry rz
    limits (-90.0 60.0)
           (-90.0 90.0)
           (-90.0 90.0)
  end
  begin
     id 26 
     name rradius
     direction -1 -4.48955e-011 6.34664e-027   
     length 3.58884   
     axis 180 30 90   XYZ
    dof rx
    limits (-10.0 170.0)
  end
  begin
     id 27 
     name rwrist
     direction -1 -4.48966e-011 9.54866e-027   
     length 1.79442   
     axis -7.69462e-015 -90 -90   XYZ
    dof ry
    limits (-180.0 0.0)
  end
  begin
     id 28
     name rhand
     direction -1 -4.48973e-011 1.90973e-026   
     length 0.779235   
     axis -1.21857e-014 -90 -90   XYZ
    dof rx rz
    limits (-90.0 90.0)
           (-45.0 45.0)
  end
  begin
     id 29
     name rfingers
     direction -1 -4.48984e-011 3.81946e-026   
     length 0.62824   
     axis -2.43714e-014 -90 -90   XYZ
    dof rx
    limits (0.0 90.0)
  end
  begin
     id 30
     name rthumb
     direction -0.707107 -6.34968e-011 0.707107   
     length 0.90203   
     axis -90 -45 -2.85299e-015   XYZ
    dof rx rz
    limits (-45.0 45.0)
           (-45.0 45.0)
  end
:hierarchy
  begin
    root lhipjoint rhipjoint lowerback
    lhipjoint lfemur
    lfemur ltibia
    ltibia lfoot
    lfoot ltoes
    rhipjoint rfemur
    rfemur rtibia
    rtibia rfoot
    rfoot rtoes
    lowerback upperback
    upperback thorax
    thorax lowerneck lclavicle rclavicle
    lowerneck upperneck
    upperneck head
    lclavicle lhumerus
    lhumerus lradius
    lradius lwrist
    lwrist lhand lthumb
    lhand lfingers
    rclavicle rhumerus
    rhumerus rradius
    rradius rwrist
    rwrist rhand rthumb
    rhand rfingers
  end

#!OML:ASF I:\Random Stuff\random\construction\7_22_03\Session 2\subj1.ASF
:FULLY-SPECIFIED
:DEGREES
102
root 5.62331 17.5179 -14.4975 3.71598 7.75992 -4.65724
lowerback 2.91069 -0.259655 1.48342
upperback -1.82356 -0.234015 1.39836
thorax -3.5088 -0.13386 0.621281
lowerneck -18.9686 -8.16304 -9.06532
upperneck 35.3576 -12.2169 7.98632
head 17.2645 -5.14682 2.60922
rclavicle 2.38417e-014 -7.7526e-015
rhumerus -45.864 -3.59566 -66.249
rradius 69.4476
rwrist 4.29369
rhand -25.9916 22.9396
rfingers 7.12502
rthumb 0.553864 -7.03939
lclavicle 2.38417e-014 -7.7526e-015
lhumerus -33.8652 -3.34788 89.6276
lradius 32.0192
lwrist 27.9697
lhand -19.4311 57.1813
lfingers 7.12502
lthumb 6.88903 87.0492
rfemur 1.01115 6.56257 21.2574
rtibia -1.11319e-014
rfoot -4.78658 -8.97573
rtoes -0.457019
lfemur -15.2326 -8.41197 -12.4642
ltibia 27.7228
lfoot -17.9015 3.70872
ltoes -25.5744
103
root 5.65085 17.5199 -14.4812 3.854 7.69157 -4.65622
lowerback 2.91308 -0.340134 1.29946
upperback -1.83615 -0.348964 1.41251
thorax -3.52184 -0.186605 0.745848
lowerneck -18.3549 -8.36097 -9.37466
upperneck 35.4914 -12.5102 8.06038
head 17.2594 -5.31912 2.65209
rclavicle -1.46914e-014 5.96354e-016
rhumerus -45.7007 -3.54022 -66.1408
rradius 69.2612
rwrist 4.16396
rhand -25.7195 23.0785
rfingers 7.12502
rthumb 0.816632 -6.89964
lclavicle -1.46914e-014 5.96354e-016
lhumerus -33.8829 -3.22486 89.6668
lradius 32.2937
lwrist 28.0548
lhand -19.3823 57.2602
lfingers 7.12502
lthumb 6.93612 87.1265
rfemur 0.951348 6.63029 21.1668
rtibia 0
rfoot -4.8317 -8.98837
rtoes -1.23421
lfemur -15.2732 -8.43747 -12.5451
ltibia 27.7023
lfoot -17.9055 3.78255
ltoes -25.1941
104
root 5.67984 17.5255 -14.4641 3.98406 7.60167 -4.65932
lowerback 2.92476 -0.385525 1.13288
upperback -1.82531 -0.417782 1.39019
thorax -3.51582 -0.217181 0.820325
lowerneck -17.8576 -8.55494 -9.49544
upperneck 35.6765 -12.8111 7.9998
head 17.2806 -5.48253 2.59869
rclavicle 2.59041e-015 2.98177e-015
rhumerus -45.5585 -3.55027 -66.0711
rradius 69.0257
rwrist 4.09067
rhand -25.5779 23.3097
rfingers 7.12502
rthumb 0.953468 -6.66795
lclavicle 2.59041e-015 2.98177e-015
lhumerus -33.933 -3.2094 89.6941
lradius 32.6914
lwrist 28.1283
lhand -19.4707 57.3674
lfingers 7.12502
lthumb 6.85078 87.2365
rfemur 0.928109 6.71794 21.0483
rtibia 6.36111e-015
rfoot -5.02995 -8.91021
rtoes -0.0257427
lfemur -15.2974 -8.50195 -12.6301
ltibia 27.6949
lfoot -17.9663 3.87769
ltoes -24.8405
105
root 5.71073 17.53 -14.4466 4.09848 7.50259 -4.73352
lowerback 2.92996 -0.397658 1.09226
upperback -1.78582 -0.438022 1.34282
thorax -3.4778 -0.226836 0.795234
lowerneck -17.443 -8.79915 -9.61107
upperneck 35.8609 -13.2229 8.02499
head 17.3472 -5.67549 2.55585
rclavicle 1.05729e-014 -3.97569e-016
rhumerus -45.402 -3.72439 -66.0249
rradius 68.708
rwrist 4.24624
rhand -25.5517 23.5153
rfingers 7.12502
rthumb 0.978738 -6.4622
lclavicle 1.05729e-014 -3.97569e-016
lhumerus -33.9682 -3.46418 89.7317
lradius 33.1004
lwrist 28.2697
lhand -19.3286 57.1294
lfingers 7.12502
lthumb 6.98794 86.9941
rfemur 0.906968 6.81959 21.005
rtibia -1.35174e-014
rfoot -5.1744 -8.8838
rtoes 0.650176
lfemur -15.3201 -8.49459 -12.6459
ltibia 27.6891
lfoot -18.0272 3.89876
ltoes -24.5735
106
root 5.74564 17.5317 -14.4289 4.23158 7.43291 -4.75362
lowerback 2.94038 -0.425704 0.989556
upperback -1.74546 -0.48117 1.32514
thorax -3.44095 -0.246094 0.836917
lowerneck -17.0907 -9.01776 -9.80102
upperneck 36.0473 -13.5719 8.06786
head 17.4334 -5.84832 2.54542
rclavicle 1.71949e-014 1.66979e-014
rhumerus -45.1945 -3.87574 -65.8939
rradius 68.3445
rwrist 4.6504
rhand -25.644 23.4866
rfingers 7.12502
rthumb 0.889544 -6.49131
lclavicle 1.71949e-014 1.66979e-014
lhumerus -34.0042 -3.67515 89.8262
lradius 33.4666
lwrist 28.367
lhand -19.136 56.8463
lfingers 7.12502
lthumb 7.17391 86.7047
rfemur 0.855381 6.88845 20.9084
rtibia 3.18055e-015
rfoot -5.21394 -8.9853
rtoes 0.0223073
lfemur -15.3602 -8.51172 -12.7344
ltibia 27.68
lfoot -18.0452 4.02899
ltoes -24.6445
107
root 5.78319 17.5335 -14.4116 4.39036 7.3871 -4.72428
lowerback 2.94733 -0.471334 0.801969
upperback -1.702 -0.551468 1.31289
thorax -3.3977 -0.276933 0.933275
lowerneck -16.7729 -9.19982 -9.91982
upperneck 36.218 -13.8546 8.0367
head 17.4954 -5.99354 2.50294
rclavicle 5.73991e-015 5.56597e-015
rhumerus -44.9925 -3.89953 -65.7606
rradius 67.9764
rwrist 5.0847
rhand -25.9989 23.4424
rfingers 7.12502
rthumb 0.546777 -6.53662
lclavicle 5.73991e-015 5.56597e-015
lhumerus -34.011 -3.75527 89.8896
lradius 33.7934
lwrist 28.3085
lhand -19.0748 56.8047
lfingers 7.12502
lthumb 7.2329 86.6611
rfemur 0.775603 6.92926 20.7448
rtibia 1.27222e-014
rfoot -5.1911 -9.07418
rtoes -0.56411
lfemur -15.4232 -8.62629 -12.879
ltibia 27.683
lfoot -18.0615 4.22417
ltoes -24.7999
108
root 5.82222 17.535 -14.3956 4.53989 7.36537 -4.65389
lowerback 2.98782 -0.521679 0.579489
upperback -1.65301 -0.63076 1.24969
thorax -3.36733 -0.312213 0.997607
lowerneck -16.4071 -9.33454 -10.0688
upperneck 36.348 -14.1196 8.16579
head 17.5447 -6.11728 2.54396
rclavicle 6.89534e-015 1.74931e-014
rhumerus -44.8564 -3.98337 -65.6439
rradius 67.5945
rwrist 5.61369
rhand -26.2769 23.8216
rfingers 7.12502
rthumb 0.278347 -6.15794
lclavicle 6.89534e-015 1.74931e-014
lhumerus -33.9527 -3.86949 89.8887
lradius 33.9895
lwrist 28.2671
lhand -19.184 56.8344
lfingers 7.12502
lthumb 7.12756 86.6944
rfemur 0.710685 6.94113 20.5199
rtibia -1.27222e-014
rfoot -5.18688 -9.09405
rtoes -0.784335
lfemur -15.4892 -8.67647 -13.0787
ltibia 27.6971
lfoot -18.0564 4.23903
ltoes -25.0518
109
root 5.86248 17.5353 -14.3823 4.68579 7.3691 -4.57529
lowerback 3.08707 -0.555656 0.33892
upperback -1.60758 -0.68842 1.18507
thorax -3.37357 -0.33636 1.07016
lowerneck -16.0084 -9.44811 -10.3882
upperneck 36.4451 -14.3914 8.53115
head 17.62 -6.23814 2.72078
rclavicle 1.65985e-014 5.56597e-015
rhumerus -44.7336 -4.22317 -65.4286
rradius 67.1703
rwrist 6.31957
rhand -26.2547 24.4661
rfingers 7.12502
rthumb 0.299702 -5.5134
lclavicle 1.65985e-014 5.56597e-015
lhumerus -33.8041 -3.90266 89.8769
lradius 34.0042
lwrist 28.1456
lhand -19.2418 56.7483
lfingers 7.12502
lthumb 7.07175 86.6102
rfemur 0.643888 6.92585 20.2826
rtibia 9.54166e-015
rfoot -5.25365 -9.08757
rtoes -1.66723
lfemur -15.5796 -8.48211 -13.3011
ltibia 27.7085
lfoot -18.0478 4.04589
ltoes -25.6125
110
root 5.90611 17.536 -14.3704 4.82277 7.41212 -4.63227
lowerback 3.18221 -0.568425 0.262258
upperback -1.55395 -0.709496 1.15877
thorax -3.37094 -0.345555 1.08803
lowerneck -15.6387 -9.60957 -10.3292
upperneck 36.4986 -14.6966 8.50931
head 17.5919 -6.37081 2.64869
rclavicle 1.08835e-014 1.51076e-014
rhumerus -44.5605 -4.5795 -65.1523
rradius 66.6856
rwrist 7.13445
rhand -26.3656 24.7693
rfingers 7.12502
rthumb 0.192657 -5.21034
lclavicle 1.08835e-014 1.51076e-014
lhumerus -33.6175 -3.88237 89.8743
lradius 33.9954
lwrist 27.8971
lhand -19.0673 56.6155
lfingers 7.12502
lthumb 7.24021 86.4716
rfemur 0.564048 6.88208 20.1866
rtibia -2.22639e-014
rfoot -5.30245 -9.08152
rtoes -2.83199
lfemur -15.6913 -8.24668 -13.3719
ltibia 27.7058
lfoot -18.049 3.79068
ltoes -25.4411
111
root 5.95246 17.5373 -14.3563 4.94438 7.44319 -4.68788
lowerback 3.22172 -0.571652 0.154554
upperback -1.4719 -0.719809 1.14349
thorax -3.30721 -0.348843 1.13304
lowerneck -15.3437 -9.75647 -10.288
upperneck 36.7007 -14.9756 8.46213
head 17.6603 -6.49285 2.57475
rclavicle 2.23633e-015 -2.42517e-014
rhumerus -44.3625 -4.97863 -64.8575
rradius 66.2346
rwrist 7.9089
rhand -26.5106 24.7253
rfingers 7.12502
rthumb 0.0525948 -5.2544
lclavicle 2.23633e-015 -2.42517e-014
lhumerus -33.4183 -4.03699 89.94
lradius 34.0051
lwrist 27.8724
lhand -19.0287 56.6656
lfingers 7.12502
lthumb 7.27741 86.5205
rfemur 0.507361 6.84896 20.0724
rtibia 6.36111e-015
rfoot -5.34701 -9.06392
rtoes -3.17419
lfemur -15.7635 -8.09084 -13.4484
ltibia 27.6832
lfoot -18.1006 3.60851
ltoes -24.8345
112
root 5.99839 17.5371 -14.3418 5.03666 7.42161 -4.63046
lowerback 3.34388 -0.594712 -0.181513
upperback -1.4043 -0.766176 1.14352
thorax -3.30117 -0.364941 1.32538
lowerneck -15.0527 -9.74731 -10.5952
upperneck 37.0283 -15.0362 8.7116
head 17.8511 -6.53479 2.74744
rclavicle -8.32411e-015 -7.95139e-016
rhumerus -44.1795 -5.24271 -64.5963
rradius 65.8988
rwrist 8.43511
rhand -26.4813 24.5855
rfingers 7.12502
rthumb 0.0809016 -5.39424
lclavicle -8.32411e-015 -7.95139e-016
lhumerus -33.2284 -4.12169 89.9912
lradius 33.9558
lwrist 27.9851
lhand -19.1661 56.8983
lfingers 7.12502
lthumb 7.14479 86.7577
rfemur 0.487172 6.85744 19.8282
rtibia 1.35174e-014
rfoot -5.42209 -9.04171
rtoes -3.1774
lfemur -15.7499 -7.81773 -13.6715
ltibia 27.6304
lfoot -18.2186 3.38585
ltoes -24.6158
113
root 6.04225 17.5383 -14.3311 5.19998 7.38387 -4.54128
lowerback 3.52398 -0.610924 -0.536723
upperback -1.41401 -0.805712 1.1067
thorax -3.40765 -0.376747 1.49192
lowerneck -14.7654 -9.81496 -10.3662
upperneck 37.3584 -15.187 8.46346
head 17.9264 -6.60307 2.58245
rclavicle -2.45996e-015 3.97569e-016
rhumerus -44.1023 -5.42182 -64.4239
rradius 65.6645
rwrist 8.72288
rhand -26.433 24.4372
rfingers 7.12502
rthumb 0.127566 -5.5425
lclavicle -2.45996e-015 3.97569e-016
lhumerus -33.08 -4.14635 89.9514
lradius 33.8622
lwrist 28.0774
lhand -19.1068 57.1624
lfingers 7.12502
lthumb 7.20206 87.0199
rfemur 0.348492 6.87878 19.5498
rtibia -5.56597e-015
rfoot -5.40384 -9.10236
rtoes -3.63827
lfemur -15.7919 -7.37308 -13.9122
ltibia 27.5322
lfoot -18.2709 2.9329
ltoes -23.6956
114
root 6.0854 17.5433 -14.32 5.45072 7.24235 -4.47949
lowerback 3.61704 -0.551394 -0.783732
upperback -1.45701 -0.742109 0.999135
thorax -3.50487 -0.339949 1.51736
lowerneck -14.4192 -9.7772 -10.3418
upperneck 37.7037 -15.1882 8.41118
head 18.0257 -6.61646 2.57921
rclavicle -6.65929e-015 -5.1684e-015
rhumerus -44.147 -5.76721 -64.3149
rradius 65.5001
rwrist 8.92716
rhand -26.4145 24.3751
rfingers 7.12502
rthumb 0.145379 -5.60456
lclavicle -6.65929e-015 -5.1684e-015
lhumerus -32.9718 -4.48459 89.9107
lradius 33.8072
lwrist 28.5087
lhand -18.9151 57.4827
lfingers 7.12502
lthumb 7.38711 87.3338
rfemur 0.0575546 7.00397 19.2823
rtibia 1.11319e-014
rfoot -5.15432 -9.1797
rtoes -4.92717
lfemur -15.9051 -6.81022 -14.1079
ltibia 27.4056
lfoot -18.309 2.36821
ltoes -22.6866
115
root 6.13087 17.5479 -14.3063 5.63513 6.93999 -4.47754
lowerback 3.7017 -0.439763 -0.979002
upperback -1.45335 -0.606703 0.903498
thorax -3.55229 -0.268884 1.52051
lowerneck -14.1089 -9.76772 -10.3175
upperneck 38.03 -15.2549 8.41852
head 18.1433 -6.64727 2.58654
rclavicle -3.47873e-016 5.56597e-015
rhumerus -44.1673 -6.16619 -64.2636
rradius 65.4027
rwrist 9.03341
rhand -26.6025 24.5869
rfingers 7.12502
rthumb -0.036136 -5.39284
lclavicle -3.47873e-016 5.56597e-015
lhumerus -32.8766 -4.97818 89.9249
lradius 33.851
lwrist 29.3025
lhand -18.8388 57.9537
lfingers 7.12502
lthumb 7.46078 87.8021
rfemur -0.21518 7.29349 19.0574
rtibia 3.97569e-015
rfoot -4.74727 -9.22412
rtoes -6.25946
lfemur -15.9143 -6.269 -14.2786
ltibia 27.2923
lfoot -18.3359 2.05951
ltoes -22.4762
